<?xml version="1.0" encoding="utf-8"?>
<!-- Generator: Adobe Illustrator 17.1.0, SVG Export Plug-In . SVG Version: 6.00 Build 0)  -->
<!DOCTYPE svg PUBLIC "-//W3C//DTD SVG 1.1//EN" "http://www.w3.org/Graphics/SVG/1.1/DTD/svg11.dtd">
<svg version="1.1" id="Layer_1" xmlns="http://www.w3.org/2000/svg" xmlns:xlink="http://www.w3.org/1999/xlink" x="0px" y="0px"
	 viewBox="0 0 600 95" enable-background="new 0 0 600 95" xml:space="preserve">
<g>
	<g>
		<path fill-rule="evenodd" clip-rule="evenodd" fill="#FFFFFF" d="M11.3,90.9c30.8-19.8,65.7-5.5,83.1,4
			C70.3,85.3,35,83.1,11.3,90.9z"/>
		<path fill-rule="evenodd" clip-rule="evenodd" fill="#FFFFFF" d="M65.3,0.3c14.8,0,27.5,8.7,33.2,21.2H87
			c-5.1-6.3-13-10.3-21.8-10.3c-8.7,0-16.4,3.9-21.5,10c0.3-0.2,0.6-0.4,0.8-0.6c12.1-8.6,28.2,0.9,28.2,0.9S57.4,17,47.1,24.3
			c-10.4,7.3-8.7,21.8-8.7,21.8s-0.1-0.2-0.2-0.5c0,0.2,0.1,0.3,0.1,0.5c-2.5-1.8-5.5-3-8.8-3.3c-0.4-2.1-0.6-4.3-0.6-6.5
			C29,16.4,45.3,0.3,65.3,0.3L65.3,0.3z M18.8,82.5v-3.1c9.6-7.1,27.3-16.3,48.6-9.7c32.4,10.1,52.9,23.9,77.9,17.7
			c25-6.2,27.2-19.9,27.2-19.9s-4.4,19.3-29,23.5c-24.6,4.2-47.3-0.5-76.2-11.3C47.9,72.6,29,78.2,18.8,82.5L18.8,82.5z M18.8,76.3
			c1.8-1.2,3.6-2.3,5.3-3.2c-0.8-0.5-1.6-1.1-2.3-1.8c-1.3-1.3-2.3-2.7-3-4.1v6.7L19,74c0.3,0.3,0.7,0.6,1,0.9
			c-0.4-0.2-0.8-0.4-1.2-0.6V76.3L18.8,76.3z M18.8,45.1V33.7c2.4-0.8,4.9-1.3,7.5-1.4c-0.1,1.3-0.2,2.6-0.2,4
			c0,2.3,0.2,4.5,0.6,6.6C23.8,43,21.1,43.8,18.8,45.1z M18.8,33.7v11.4c-5.1,2.9-8.5,8.3-8.5,14.6c0,6.2,3.4,11.6,8.5,14.6v2
			c-2,1.4-4,2.9-5.7,4.1C5.8,75.7,1,67.6,1,58.4C1,46.9,8.4,37.2,18.8,33.7L18.8,33.7z M18.8,67.1c-3.2-6.3-2.1-13.4-2.1-13.4
			s-5.5,12.6,2.1,20.1V67.1L18.8,67.1z M18.8,79.4c-5,3.7-7.8,6.8-7.8,6.8c0,0.1,2.9-1.6,7.8-3.7V79.4z"/>
		<path fill-rule="evenodd" clip-rule="evenodd" fill="#FFFFFF" d="M100.2,74.5c0,0,15.4,7.9,30,6.6c14.5-1.3,18.9-6.4,18.9-6.4
			s-5.3,9.8-19.3,10.4C115.8,85.6,100.2,74.8,100.2,74.5z"/>
		<rect x="88.3" y="24.5" fill-rule="evenodd" clip-rule="evenodd" fill="#FFFFFF" width="13" height="13"/>
		<rect x="139.9" y="60.5" fill-rule="evenodd" clip-rule="evenodd" fill="#FFFFFF" width="10" height="10"/>
		<rect x="104" y="12.6" fill-rule="evenodd" clip-rule="evenodd" fill="#FFFFFF" width="17.3" height="17.3"/>
		<rect x="154.2" y="42.6" fill-rule="evenodd" clip-rule="evenodd" fill="#FFFFFF" width="17.3" height="17.3"/>
		<rect x="123" y="31.3" fill-rule="evenodd" clip-rule="evenodd" fill="#FFFFFF" width="9.6" height="9.6"/>
		<rect x="129.4" y="50.3" fill-rule="evenodd" clip-rule="evenodd" fill="#FFFFFF" width="9.6" height="9.6"/>
		<rect x="109.1" y="51.2" fill-rule="evenodd" clip-rule="evenodd" fill="#FFFFFF" width="9.7" height="9.6"/>
		<rect x="142.9" y="31.6" fill-rule="evenodd" clip-rule="evenodd" fill="#FFFFFF" width="9.6" height="9.6"/>
	</g>
	<g>
		<path fill="#FFFFFF" d="M250.1,50.9c0,4-0.7,7.8-2,11.1c-1.3,3.4-3.2,6.3-5.7,8.7c-2.4,2.4-5.4,4.3-8.8,5.7c-3.4,1.3-7.2,2-11.4,2
			H201V23.3h21.1c4.2,0,8,0.7,11.4,2c3.4,1.4,6.4,3.3,8.8,5.7c2.4,2.4,4.3,5.3,5.7,8.7C249.4,43.2,250.1,46.9,250.1,50.9z
			 M239.6,50.9c0-3-0.4-5.7-1.2-8.2c-0.8-2.4-2-4.4-3.5-6.1c-1.5-1.7-3.3-2.9-5.5-3.8c-2.2-0.9-4.6-1.3-7.3-1.3h-10.7v38.9h10.7
			c2.7,0,5.1-0.4,7.3-1.3c2.2-0.9,4-2.2,5.5-3.8c1.5-1.7,2.7-3.7,3.5-6.1C239.1,56.7,239.6,53.9,239.6,50.9z"/>
		<path fill="#FFFFFF" d="M265.2,27.9c0,0.8-0.2,1.6-0.5,2.3c-0.3,0.7-0.8,1.3-1.3,1.9c-0.5,0.5-1.2,1-1.9,1.3
			c-0.7,0.3-1.5,0.5-2.4,0.5c-0.8,0-1.6-0.2-2.3-0.5c-0.7-0.3-1.4-0.7-1.9-1.3c-0.5-0.5-1-1.2-1.3-1.9c-0.3-0.7-0.5-1.5-0.5-2.3
			c0-0.8,0.2-1.6,0.5-2.4c0.3-0.7,0.7-1.4,1.3-1.9c0.5-0.5,1.2-1,1.9-1.3c0.7-0.3,1.5-0.5,2.3-0.5c0.8,0,1.6,0.2,2.4,0.5
			c0.7,0.3,1.4,0.7,1.9,1.3c0.5,0.5,1,1.2,1.3,1.9C265,26.3,265.2,27.1,265.2,27.9z M263.8,39.3v39.2h-9.4V39.3H263.8z"/>

		<path fill="#FFFFFF" d="M325.4,50.9c0,4-0.7,7.8-2,11.2c-1.3,3.4-3.2,6.4-5.7,9c-2.4,2.5-5.4,4.5-8.8,5.9
			c-3.4,1.4-7.2,2.1-11.4,2.1s-8-0.7-11.4-2.1c-3.4-1.4-6.4-3.4-8.9-5.9c-2.5-2.5-4.4-5.5-5.7-9c-1.3-3.4-2-7.2-2-11.2
			c0-4,0.7-7.8,2-11.2c1.3-3.4,3.3-6.4,5.7-9c2.5-2.5,5.4-4.5,8.9-5.9c3.4-1.4,7.3-2.1,11.4-2.1s8,0.7,11.4,2.1
			c3.4,1.4,6.4,3.4,8.8,5.9c2.4,2.5,4.3,5.5,5.7,8.9C324.8,43.1,325.4,46.9,325.4,50.9z M314.9,50.9c0-3-0.4-5.7-1.2-8.2
			c-0.8-2.4-2-4.4-3.5-6.1c-1.5-1.7-3.3-3-5.5-3.9c-2.2-0.9-4.6-1.3-7.3-1.3s-5.1,0.4-7.3,1.3c-2.2,0.9-4,2.2-5.5,3.9
			c-1.5,1.7-2.7,3.7-3.5,6.1c-0.8,2.4-1.2,5.1-1.2,8.2c0,3,0.4,5.7,1.2,8.1c0.8,2.4,2,4.4,3.5,6.1c1.5,1.7,3.4,2.9,5.5,3.8
			c2.2,0.9,4.6,1.3,7.3,1.3s5.1-0.4,7.3-1.3c2.2-0.9,4-2.2,5.5-3.8c1.5-1.7,2.7-3.7,3.5-6.1C314.5,56.7,314.9,53.9,314.9,50.9z"/>
	
	</g>
</g>
</svg>
