<?xml version="1.0" encoding="utf-8"?>
<!-- Generator: Adobe Illustrator 17.1.0, SVG Export Plug-In . SVG Version: 6.00 Build 0)  -->
<!DOCTYPE svg PUBLIC "-//W3C//DTD SVG 1.1//EN" "http://www.w3.org/Graphics/SVG/1.1/DTD/svg11.dtd">
<svg version="1.1" id="Layer_1" xmlns="http://www.w3.org/2000/svg" xmlns:xlink="http://www.w3.org/1999/xlink" x="0px" y="0px"
	 viewBox="187.378 0 1116.245 893.021" enable-background="new 187.378 0 1116.245 893.021" xml:space="preserve">
<path fill="#FFFFFF" d="M224.589,0h1041.823c20.546,0,37.211,16.687,37.211,37.211v74.422c0,20.567-16.665,37.211-37.211,37.211
	H224.589c-20.567-0.021-37.211-16.665-37.211-37.211V37.211C187.378,16.687,204.022,0,224.589,0z"/>
<path fill="#FFFFFF" d="M224.589,372.11h1041.823c20.546,0,37.211,16.644,37.211,37.211v74.422
	c0,20.524-16.665,37.211-37.211,37.211H224.589c-20.567-0.021-37.211-16.687-37.211-37.232V409.3
	C187.378,388.754,204.022,372.11,224.589,372.11z"/>
<path fill="#FFFFFF" d="M224.589,744.177h1041.823c20.546,0,37.211,16.644,37.211,37.211v74.422
	c0,20.524-16.665,37.211-37.211,37.211H224.589c-20.567-0.021-37.211-16.687-37.211-37.211v-74.422
	C187.378,760.821,204.022,744.177,224.589,744.177z"/>
</svg>
