<?xml version="1.0" encoding="utf-8"?>
<!-- Generator: Adobe Illustrator 18.1.0, SVG Export Plug-In . SVG Version: 6.00 Build 0)  -->
<!DOCTYPE svg PUBLIC "-//W3C//DTD SVG 1.1//EN" "http://www.w3.org/Graphics/SVG/1.1/DTD/svg11.dtd">
<svg version="1.1" id="Layer_1" xmlns="http://www.w3.org/2000/svg" xmlns:xlink="http://www.w3.org/1999/xlink" x="0px" y="0px"
	 viewBox="0 0 16.7 16.7" enable-background="new 0 0 16.7 16.7" xml:space="preserve">
<path id="help" fill="#F3F3F4" d="M2.4,2.4L2.4,2.4c-3.3,3.3-3.3,8.5,0,11.8s8.5,3.3,11.8,0c3.3-3.3,3.3-8.5,0-11.8
	C11-0.8,5.7-0.8,2.4,2.4z M13.9,2.8c0.5,0.5,0.8,1,1.2,1.5l-2.3,2.3C12.5,6,12.2,5.5,11.7,5c-0.5-0.5-1-0.8-1.6-1.1l2.3-2.3
	C12.9,2,13.4,2.4,13.9,2.8z M5.4,11.3C3.7,9.7,3.7,7,5.4,5.4c1.6-1.6,4.3-1.6,5.9,0c1.6,1.6,1.6,4.3,0,5.9C9.7,12.9,7,12.9,5.4,11.3
	z M2.8,13.9c-0.5-0.5-0.8-1-1.2-1.5l2.3-2.3c0.2,0.6,0.6,1.1,1.1,1.6c0.5,0.5,1,0.8,1.6,1.1L4.3,15C3.8,14.7,3.3,14.3,2.8,13.9z
	 M4.3,1.7l2.3,2.3C6,4.2,5.5,4.5,5,5C4.5,5.5,4.2,6,3.9,6.6L1.7,4.3c0.3-0.5,0.7-1,1.2-1.5C3.3,2.4,3.8,2,4.3,1.7z M12.3,15
	l-2.3-2.3c0.6-0.2,1.1-0.6,1.6-1.1c0.5-0.5,0.8-1,1.1-1.6l2.3,2.3c-0.3,0.5-0.7,1-1.2,1.5C13.4,14.3,12.9,14.7,12.3,15z"/>
</svg>
